{
    "asset" : {
        "generator" : "Khronos glTF Blender I/O v1.2.75",
        "version" : "2.0"
    },
    "scene" : 0,
    "scenes" : [
        {
            "name" : "Scene",
            "nodes" : [
                0
            ]
        }
    ],
    "nodes" : [
        {
            "mesh" : 0,
            "name" : "Text"
        }
    ],
    "materials" : [
        {
            "doubleSided" : true,
            "emissiveFactor" : [
                0,
                0,
                0
            ],
            "name" : "text_color",
            "pbrMetallicRoughness" : {
                "baseColorFactor" : [
                    0.8000000715255737,
                    0.005995739717036486,
                    0.002747548744082451,
                    1
                ],
                "metallicFactor" : 0,
                "roughnessFactor" : 0.5
            }
        }
    ],
    "meshes" : [
        {
            "name" : "Text",
            "primitives" : [
                {
                    "attributes" : {
                        "POSITION" : 0,
                        "NORMAL" : 1,
                        "TEXCOORD_0" : 2
                    },
                    "indices" : 3,
                    "material" : 0
                }
            ]
        }
    ],
    "accessors" : [
        {
            "bufferView" : 0,
            "componentType" : 5126,
            "count" : 5632,
            "max" : [
                1.7310000658035278,
                0.04999999701976776,
                0.019009191542863846
            ],
            "min" : [
                -1.6679999828338623,
                -0.04999999701976776,
                -0.7010037302970886
            ],
            "type" : "VEC3"
        },
        {
            "bufferView" : 1,
            "componentType" : 5126,
            "count" : 5632,
            "type" : "VEC3"
        },
        {
            "bufferView" : 2,
            "componentType" : 5126,
            "count" : 5632,
            "type" : "VEC2"
        },
        {
            "bufferView" : 3,
            "componentType" : 5123,
            "count" : 27168,
            "type" : "SCALAR"
        }
    ],
    "bufferViews" : [
        {
            "buffer" : 0,
            "byteLength" : 67584,
            "byteOffset" : 0
        },
        {
            "buffer" : 0,
            "byteLength" : 67584,
            "byteOffset" : 67584
        },
        {
            "buffer" : 0,
            "byteLength" : 45056,
            "byteOffset" : 135168
        },
        {
            "buffer" : 0,
            "byteLength" : 54336,
            "byteOffset" : 180224
        }
    ],
    "buffers" : [
        {
            "byteLength" : 234560,
            "uri" : "data:application/octet-stream;base64,"
        }
    ]
}
